<svg xmlns="http://www.w3.org/2000/svg" xmlns:svg="http://www.w3.org/2000/svg" id="svg2067" xml:space="preserve" width="682.66669" height="682.66669" viewBox="0 0 682.66669 682.66669"><defs id="defs2071"><clipPath clipPathUnits="userSpaceOnUse" id="clipPath2081"><path d="M 0,512 H 512 V 0 H 0 Z" id="path2079"></path></clipPath><clipPath clipPathUnits="userSpaceOnUse" id="clipPath2113"><path d="M 0,512 H 512 V 0 H 0 Z" id="path2111"></path></clipPath></defs><g id="g2073" transform="matrix(1.3333333,0,0,-1.3333333,0,682.66667)"><g id="g2075"><g id="g2077" clip-path="url(#clipPath2081)"><g id="g2083" transform="translate(275.1128,424.3423)"><path d="m 0,0 v -116.741 c 0,-1.657 1.343,-3 3,-3 h 40.502 c 1.657,0 3,1.343 3,3 V 0 c 0,1.657 1.344,3 3,3 h 25.185 c 2.448,0 3.865,2.774 2.431,4.758 L 25.661,78.916 c -1.191,1.647 -3.642,1.657 -4.848,0.02 L -31.539,7.778 C -32.997,5.797 -31.582,3 -29.123,3 H -3 C -1.343,3 0,1.657 0,0" style="fill:#05e39c;fill-opacity:1;fill-rule:nonzero;stroke:none" id="path2085"></path></g><g id="g2087" transform="translate(312.2036,487.4521)"><path d="m 0,0 -11.43,15.806 c -1.191,1.648 -3.642,1.658 -4.847,0.02 L -68.63,-55.332 c -1.457,-1.981 -0.043,-4.778 2.417,-4.778 h 21.988 z" style="fill:#0ed290;fill-opacity:1;fill-rule:nonzero;stroke:none" id="path2089"></path></g><g id="g2091" transform="translate(275.1128,424.3423)"><path d="m 0,0 v -116.741 c 0,-1.657 1.343,-3 3,-3 h 40.502 c 1.657,0 3,1.343 3,3 V 0 c 0,1.657 1.344,3 3,3 h 25.185 c 2.448,0 3.865,2.774 2.431,4.758 L 25.661,78.916 c -1.191,1.647 -3.642,1.657 -4.848,0.02 L -31.539,7.778 C -32.997,5.797 -31.582,3 -29.123,3 H -3 C -1.343,3 0,1.657 0,0 Z" style="fill:none;stroke:#000000;stroke-width:15;stroke-linecap:round;stroke-linejoin:round;stroke-miterlimit:10;stroke-dasharray:none;stroke-opacity:1" id="path2093"></path></g><g id="g2095" transform="translate(304.314,272.3242)"><path d="m 0,0 26.204,26.204 c 2.791,2.791 3.11,7.233 0.705,10.363 -8.992,11.706 -19.485,22.199 -31.191,31.191 -3.13,2.405 -7.572,2.086 -10.363,-0.705 L -40.849,40.849 c -2.472,-2.472 -6.262,-2.997 -9.34,-1.34 -7.032,3.786 -14.488,6.886 -22.275,9.221 -3.346,1.003 -5.652,4.057 -5.652,7.55 v 37.074 c 0,3.946 -2.912,7.313 -6.824,7.825 -7.221,0.945 -14.583,1.437 -22.061,1.437 -7.478,0 -14.84,-0.492 -22.06,-1.437 -3.913,-0.512 -6.824,-3.879 -6.824,-7.825 V 56.28 c 0,-3.493 -2.307,-6.547 -5.653,-7.55 -7.787,-2.335 -15.242,-5.435 -22.275,-9.221 -3.078,-1.657 -6.868,-1.132 -9.34,1.34 l -26.203,26.204 c -2.792,2.791 -7.233,3.11 -10.364,0.705 -11.706,-8.992 -22.198,-19.485 -31.191,-31.191 -2.405,-3.13 -2.086,-7.572 0.705,-10.363 L -214.001,0 c 2.471,-2.472 2.997,-6.262 1.34,-9.34 -3.786,-7.033 -6.886,-14.488 -9.221,-22.275 -1.004,-3.346 -4.057,-5.652 -7.55,-5.652 h -37.074 c -3.946,0 -7.313,-2.912 -7.825,-6.825 -0.945,-7.22 -1.437,-14.582 -1.437,-22.06 0,-7.477 0.492,-14.84 1.437,-22.06 0.512,-3.913 3.879,-6.824 7.825,-6.824 h 37.074 c 3.493,0 6.546,-2.307 7.55,-5.653 2.335,-7.787 5.435,-15.242 9.221,-22.275 1.657,-3.078 1.131,-6.868 -1.34,-9.339 l -26.205,-26.204 c -2.791,-2.792 -3.11,-7.233 -0.705,-10.364 8.993,-11.706 19.485,-22.198 31.191,-31.191 3.131,-2.405 7.572,-2.085 10.364,0.706 l 26.203,26.204 c 2.472,2.471 6.262,2.997 9.34,1.34 7.033,-3.786 14.488,-6.887 22.275,-9.221 3.346,-1.004 5.653,-4.057 5.653,-7.55 v -37.074 c 0,-3.946 2.911,-7.313 6.824,-7.825 7.22,-0.945 14.582,-1.437 22.06,-1.437 7.478,0 14.84,0.492 22.061,1.437 3.912,0.512 6.824,3.879 6.824,7.825 v 37.074 c 0,3.493 2.306,6.546 5.652,7.55 7.787,2.334 15.243,5.435 22.275,9.221 3.078,1.657 6.868,1.131 9.34,-1.34 l 26.204,-26.204 c 2.791,-2.791 7.233,-3.111 10.363,-0.706 11.706,8.993 22.199,19.485 31.191,31.191 2.405,3.131 2.086,7.572 -0.705,10.364 L 0,-132.303 c -2.472,2.471 -2.998,6.261 -1.34,9.339 3.786,7.033 6.886,14.488 9.221,22.275 1.003,3.346 4.057,5.653 7.55,5.653 h 37.073 c 3.947,0 7.313,2.911 7.826,6.824 0.945,7.22 1.437,14.583 1.437,22.06 0,7.478 -0.492,14.84 -1.437,22.06 -0.513,3.913 -3.879,6.825 -7.826,6.825 H 15.431 c -3.493,0 -6.547,2.306 -7.55,5.652 C 5.546,-23.828 2.446,-16.373 -1.34,-9.34 -2.998,-6.262 -2.472,-2.472 0,0" style="fill:#7ca1b1;fill-opacity:1;fill-rule:nonzero;stroke:none" id="path2097"></path></g><g id="g2099" transform="translate(135.3447,206.1724)"><path d="m 0,0 c 0,61.985 37.396,115.228 90.853,138.421 v 21.084 c 0,3.947 -2.912,7.313 -6.824,7.826 -7.22,0.945 -14.583,1.437 -22.061,1.437 -7.477,0 -14.84,-0.492 -22.06,-1.437 -3.913,-0.513 -6.824,-3.879 -6.824,-7.826 v -37.073 c 0,-3.494 -2.307,-6.547 -5.653,-7.55 -7.786,-2.335 -15.242,-5.435 -22.275,-9.221 -3.077,-1.658 -6.867,-1.132 -9.34,1.34 l -26.204,26.204 c -2.791,2.791 -7.232,3.11 -10.362,0.705 -11.706,-8.993 -22.199,-19.485 -31.192,-31.191 -2.405,-3.131 -2.085,-7.572 0.706,-10.363 l 26.204,-26.204 c 2.471,-2.472 2.997,-6.262 1.34,-9.34 -3.786,-7.033 -6.886,-14.488 -9.221,-22.275 -1.004,-3.346 -4.057,-5.652 -7.55,-5.652 h -37.074 c -3.946,0 -7.313,-2.912 -7.825,-6.824 -0.945,-7.221 -1.437,-14.583 -1.437,-22.061 0,-7.478 0.492,-14.84 1.437,-22.06 0.512,-3.913 3.879,-6.824 7.825,-6.824 h 37.074 c 3.493,0 6.546,-2.307 7.55,-5.653 2.335,-7.787 5.435,-15.242 9.221,-22.275 1.657,-3.078 1.131,-6.868 -1.34,-9.339 l -26.204,-26.204 c -2.791,-2.791 -3.111,-7.233 -0.706,-10.363 8.993,-11.706 19.486,-22.199 31.192,-31.192 3.13,-2.405 7.571,-2.086 10.362,0.705 L -4.184,-107 c 2.473,2.471 6.263,2.997 9.34,1.34 7.033,-3.786 14.489,-6.886 22.275,-9.221 3.346,-1.004 5.653,-4.057 5.653,-7.55 v -37.074 c 0,-3.946 2.911,-7.313 6.824,-7.825 7.22,-0.945 14.583,-1.437 22.06,-1.437 7.478,0 14.841,0.492 22.061,1.437 3.912,0.512 6.824,3.879 6.824,7.825 v 21.084 C 37.396,-115.227 0,-61.984 0,0" style="fill:#678d98;fill-opacity:1;fill-rule:nonzero;stroke:none" id="path2101"></path></g><g id="g2103" transform="translate(304.314,272.3242)"><path d="m 0,0 26.204,26.204 c 2.791,2.791 3.11,7.233 0.705,10.363 -8.992,11.706 -19.485,22.199 -31.191,31.191 -3.13,2.405 -7.572,2.086 -10.363,-0.705 L -40.849,40.849 c -2.472,-2.472 -6.262,-2.997 -9.34,-1.34 -7.032,3.786 -14.488,6.886 -22.275,9.221 -3.346,1.003 -5.652,4.057 -5.652,7.55 v 37.074 c 0,3.946 -2.912,7.313 -6.824,7.825 -7.221,0.945 -14.583,1.437 -22.061,1.437 -7.478,0 -14.84,-0.492 -22.06,-1.437 -3.913,-0.512 -6.824,-3.879 -6.824,-7.825 V 56.28 c 0,-3.493 -2.307,-6.547 -5.653,-7.55 -7.787,-2.335 -15.242,-5.435 -22.275,-9.221 -3.078,-1.657 -6.868,-1.132 -9.34,1.34 l -26.203,26.204 c -2.792,2.791 -7.233,3.11 -10.364,0.705 -11.706,-8.992 -22.198,-19.485 -31.191,-31.191 -2.405,-3.13 -2.086,-7.572 0.705,-10.363 L -214.001,0 c 2.471,-2.472 2.997,-6.262 1.34,-9.34 -3.786,-7.033 -6.886,-14.488 -9.221,-22.275 -1.004,-3.346 -4.057,-5.652 -7.55,-5.652 h -37.074 c -3.946,0 -7.313,-2.912 -7.825,-6.825 -0.945,-7.22 -1.437,-14.582 -1.437,-22.06 0,-7.477 0.492,-14.84 1.437,-22.06 0.512,-3.913 3.879,-6.824 7.825,-6.824 h 37.074 c 3.493,0 6.546,-2.307 7.55,-5.653 2.335,-7.787 5.435,-15.242 9.221,-22.275 1.657,-3.078 1.131,-6.868 -1.34,-9.339 l -26.205,-26.204 c -2.791,-2.792 -3.11,-7.233 -0.705,-10.364 8.993,-11.706 19.485,-22.198 31.191,-31.191 3.131,-2.405 7.572,-2.085 10.364,0.706 l 26.203,26.204 c 2.472,2.471 6.262,2.997 9.34,1.34 7.033,-3.786 14.488,-6.887 22.275,-9.221 3.346,-1.004 5.653,-4.057 5.653,-7.55 v -37.074 c 0,-3.946 2.911,-7.313 6.824,-7.825 7.22,-0.945 14.582,-1.437 22.06,-1.437 7.478,0 14.84,0.492 22.061,1.437 3.912,0.512 6.824,3.879 6.824,7.825 v 37.074 c 0,3.493 2.306,6.546 5.652,7.55 7.787,2.334 15.243,5.435 22.275,9.221 3.078,1.657 6.868,1.131 9.34,-1.34 l 26.204,-26.204 c 2.791,-2.791 7.233,-3.111 10.363,-0.706 11.706,8.993 22.199,19.485 31.191,31.191 2.405,3.131 2.086,7.572 -0.705,10.364 L 0,-132.303 c -2.472,2.471 -2.998,6.261 -1.34,9.339 3.786,7.033 6.886,14.488 9.221,22.275 1.003,3.346 4.057,5.653 7.55,5.653 h 37.073 c 3.947,0 7.313,2.911 7.826,6.824 0.945,7.22 1.437,14.583 1.437,22.06 0,7.478 -0.492,14.84 -1.437,22.06 -0.513,3.913 -3.879,6.825 -7.826,6.825 H 15.431 c -3.493,0 -6.547,2.306 -7.55,5.652 C 5.546,-23.828 2.446,-16.373 -1.34,-9.34 -2.998,-6.262 -2.472,-2.472 0,0 Z" style="fill:none;stroke:#000000;stroke-width:15;stroke-linecap:round;stroke-linejoin:round;stroke-miterlimit:10;stroke-dasharray:none;stroke-opacity:1" id="path2105"></path></g></g></g><g id="g2107"><g id="g2109" clip-path="url(#clipPath2113)"><g id="g2115" transform="translate(282.313,206.1724)"><path d="m 0,0 c 0,-46.944 -38.056,-85 -85,-85 -46.944,0 -85,38.056 -85,85 0,46.944 38.056,85 85,85 C -38.056,85 0,46.944 0,0" style="fill:#dff6fd;fill-opacity:1;fill-rule:nonzero;stroke:none" id="path2117"></path></g><g id="g2119" transform="translate(143,206.1724)"><path d="M 0,0 C 0,41.703 30.041,76.366 69.657,83.592 64.677,84.501 59.555,85 54.313,85 c -46.944,0 -85,-38.056 -85,-85 0,-46.944 38.056,-85 85,-85 5.242,0 10.364,0.5 15.344,1.408 C 30.041,-76.366 0,-41.702 0,0" style="fill:#c8effe;fill-opacity:1;fill-rule:nonzero;stroke:none" id="path2121"></path></g><g id="g2123" transform="translate(281.1763,220)"><path d="m 0,0 c -6.607,40.365 -41.629,71.172 -83.863,71.172 -46.944,0 -85,-38.055 -85,-85 0,-46.943 38.056,-85 85,-85 39.634,0 72.931,27.128 82.34,63.828" style="fill:none;stroke:#000000;stroke-width:15;stroke-linecap:round;stroke-linejoin:round;stroke-miterlimit:10;stroke-dasharray:none;stroke-opacity:1" id="path2125"></path></g><g id="g2127" transform="translate(248.918,206.1724)"><path d="m 0,0 c 0,-28.5 -23.104,-51.604 -51.605,-51.604 -28.5,0 -51.604,23.104 -51.604,51.604 0,28.5 23.104,51.605 51.604,51.605 C -23.104,51.605 0,28.5 0,0" style="fill:#678d98;fill-opacity:1;fill-rule:nonzero;stroke:none" id="path2129"></path></g><g id="g2131" transform="translate(176.7905,206.1724)"><path d="m 0,0 c 0,23.084 15.159,42.624 36.064,49.219 -4.905,1.547 -10.125,2.386 -15.542,2.386 -28.5,0 -51.604,-23.105 -51.604,-51.605 0,-28.5 23.104,-51.604 51.604,-51.604 5.417,0 10.637,0.838 15.542,2.386 C 15.159,-42.624 0,-23.084 0,0" style="fill:#537984;fill-opacity:1;fill-rule:nonzero;stroke:none" id="path2133"></path></g><g id="g2135" transform="translate(248.918,206.1724)"><path d="m 0,0 c 0,-28.5 -23.104,-51.604 -51.605,-51.604 -28.5,0 -51.604,23.104 -51.604,51.604 0,28.5 23.104,51.605 51.604,51.605 C -23.104,51.605 0,28.5 0,0 Z" style="fill:none;stroke:#000000;stroke-width:15;stroke-linecap:round;stroke-linejoin:round;stroke-miterlimit:10;stroke-dasharray:none;stroke-opacity:1" id="path2137"></path></g><g id="g2139" transform="translate(219.0181,206.1724)"><path d="m 0,0 c 0,-11.987 -9.718,-21.705 -21.705,-21.705 -11.987,0 -21.705,9.718 -21.705,21.705 0,11.987 9.718,21.705 21.705,21.705 C -9.718,21.705 0,11.987 0,0" style="fill:#ffffff;fill-opacity:1;fill-rule:nonzero;stroke:none" id="path2141"></path></g><g id="g2143" transform="translate(219.0181,206.1724)"><path d="m 0,0 c 0,-11.987 -9.718,-21.705 -21.705,-21.705 -11.987,0 -21.705,9.718 -21.705,21.705 0,11.987 9.718,21.705 21.705,21.705 C -9.718,21.705 0,11.987 0,0 Z" style="fill:none;stroke:#000000;stroke-width:15;stroke-linecap:round;stroke-linejoin:round;stroke-miterlimit:10;stroke-dasharray:none;stroke-opacity:1" id="path2145"></path></g><g id="g2147" transform="translate(393.1616,329.8999)"><path d="m 0,0 v -223.051 c 0,-1.657 1.343,-3 3,-3 h 40.502 c 1.657,0 3,1.343 3,3 V 0 c 0,1.657 1.343,3 3,3 h 25.185 c 2.447,0 3.865,2.774 2.43,4.758 L 25.661,78.916 c -1.192,1.647 -3.642,1.657 -4.848,0.02 L -31.539,7.778 C -32.997,5.797 -31.582,3 -29.123,3 H -3 C -1.343,3 0,1.657 0,0" style="fill:#05e39c;fill-opacity:1;fill-rule:nonzero;stroke:none" id="path2149"></path></g><g id="g2151" transform="translate(430.4731,392.7046)"><path d="m 0,0 -11.651,16.111 c -1.191,1.648 -3.642,1.658 -4.847,0.02 l -52.353,-71.158 c -1.457,-1.981 -0.043,-4.778 2.417,-4.778 H -44 Z" style="fill:#0ed290;fill-opacity:1;fill-rule:nonzero;stroke:none" id="path2153"></path></g><g id="g2155" transform="translate(439.6636,278)"><path d="m 0,0 v 51.9 c 0,1.657 1.343,3 3,3 h 25.185 c 2.447,0 3.865,2.774 2.43,4.758 l -51.456,71.158 c -1.192,1.647 -3.642,1.658 -4.847,0.019 L -78.041,59.678 c -1.458,-1.981 -0.043,-4.778 2.416,-4.778 h 26.123 c 1.657,0 3,-1.343 3,-3 v -223.051 c 0,-1.657 1.343,-3 3,-3 H -3 c 1.657,0 3,1.343 3,3 L 0,-35" style="fill:none;stroke:#000000;stroke-width:15;stroke-linecap:round;stroke-linejoin:round;stroke-miterlimit:10;stroke-dasharray:none;stroke-opacity:1" id="path2157"></path></g><g id="g2159" transform="translate(483.4541,108.5)"><path d="m 0,0 c 0,-55.781 -45.219,-101 -101,-101 -55.781,0 -101,45.219 -101,101 0,55.781 45.219,101 101,101 C -45.219,101 0,55.781 0,0" style="fill:#fd5426;fill-opacity:1;fill-rule:nonzero;stroke:none" id="path2161"></path></g><g id="g2163" transform="translate(310,108.5)"><path d="M 0,0 C 0,50.935 37.707,93.056 86.727,99.991 82.063,100.651 77.3,101 72.454,101 c -55.781,0 -101,-45.219 -101,-101 0,-55.781 45.219,-101 101,-101 4.846,0 9.609,0.349 14.273,1.009 C 37.707,-93.056 0,-50.935 0,0" style="fill:#ef4423;fill-opacity:1;fill-rule:nonzero;stroke:none" id="path2165"></path></g><g id="g2167" transform="translate(483.4541,108.5)"><path d="m 0,0 c 0,-55.781 -45.219,-101 -101,-101 -55.781,0 -101,45.219 -101,101 0,55.781 45.219,101 101,101 C -45.219,101 0,55.781 0,0 Z" style="fill:none;stroke:#000000;stroke-width:15;stroke-linecap:round;stroke-linejoin:round;stroke-miterlimit:10;stroke-dasharray:none;stroke-opacity:1" id="path2169"></path></g><g id="g2171" transform="translate(382.4541,32.5)"><path d="m 0,0 c -41.907,0 -76,34.093 -76,76 0,41.907 34.093,76 76,76 41.907,0 76,-34.093 76,-76 C 76,34.093 41.907,0 0,0" style="fill:#ffffff;fill-opacity:1;fill-rule:nonzero;stroke:none" id="path2173"></path></g><g id="g2175" transform="translate(337,108.5)"><path d="M 0,0 C 0,36.677 26.115,67.369 60.727,74.458 55.792,75.469 50.684,76 45.454,76 c -41.907,0 -76,-34.093 -76,-76 0,-41.907 34.093,-76 76,-76 5.23,0 10.338,0.532 15.273,1.542 C 26.115,-67.368 0,-36.677 0,0" style="fill:#eef5f6;fill-opacity:1;fill-rule:nonzero;stroke:none" id="path2177"></path></g><g id="g2179" transform="translate(457.4082,121)"><path d="m 0,0 c -5.981,35.978 -37.306,63.5 -74.954,63.5 -41.907,0 -76,-34.093 -76,-76 0,-41.907 34.093,-76 76,-76 34.077,0 62.985,22.544 72.599,53.5" style="fill:none;stroke:#000000;stroke-width:15;stroke-linecap:round;stroke-linejoin:round;stroke-miterlimit:10;stroke-dasharray:none;stroke-opacity:1" id="path2181"></path></g><g id="g2183" transform="translate(416.5464,130.6299)"><path d="M 0,0 -34.092,-22.13 V 31.369" style="fill:none;stroke:#000000;stroke-width:15;stroke-linecap:round;stroke-linejoin:round;stroke-miterlimit:10;stroke-dasharray:none;stroke-opacity:1" id="path2185"></path></g></g></g></g></svg>