<svg xmlns="http://www.w3.org/2000/svg" xmlns:xlink="http://www.w3.org/1999/xlink" id="Capa_1" x="0px" y="0px" viewBox="0 0 512 512" style="enable-background:new 0 0 512 512;" xml:space="preserve"><path style="fill:#4E4F75;" d="M358.772,281.198v181.69c0,22.811-59.22,41.296-132.272,41.296c-20.979,0-40.824-1.528-58.443-4.244  c-43.745-6.728-73.829-20.791-73.829-37.053V282.645l73.829-0.402L358.772,281.198z"></path><g>	<path style="fill:#32314C;" d="M168.059,282.243v217.698c-43.745-6.728-73.829-20.791-73.829-37.053V282.645L168.059,282.243z"></path>	<path style="fill:#32314C;" d="M358.772,281.198v27.698c-36.74,8.711-82.567,13.884-132.272,13.884s-95.532-5.173-132.272-13.884   v-26.251l73.829-0.402L358.772,281.198z"></path></g><ellipse style="fill:#4E4F75;" cx="226.501" cy="226.288" rx="218.907" ry="68.348"></ellipse><path style="fill:#32314C;" d="M226.499,244.601c-43.522,0-86.21-4.407-120.2-12.409c-0.082-0.019-0.164-0.038-0.246-0.058  c-6.153-1.453-6.153-10.238,0-11.692c0.082-0.019,0.164-0.038,0.246-0.058c33.991-8.002,76.678-12.409,120.2-12.409  s86.209,4.407,120.2,12.409c0.082,0.019,0.164,0.038,0.246,0.058c6.153,1.453,6.153,10.238,0,11.692  c-0.082,0.019-0.164,0.038-0.246,0.058C312.708,240.194,270.02,244.601,226.499,244.601z"></path><rect x="238.609" y="108.546" transform="matrix(-0.8203 0.5719 -0.5719 -0.8203 762.2191 7.9926)" style="fill:#ED4596;" width="282.49" height="30.375"></rect><rect x="234.266" y="109.912" transform="matrix(-0.8203 0.5719 -0.5719 -0.8203 750.7508 -0.8616)" style="fill:#E65091;" width="282.49" height="15.187"></rect><g>	<path style="fill:#F9D366;" d="M333.601,81.069l15.991-3.242c7.55-1.531,7.55-12.32,0-13.851l-15.991-3.242   c-15.759-3.195-28.074-15.51-31.269-31.269l-3.242-15.991c-1.531-7.55-12.32-7.55-13.851,0l-3.242,15.992   c-3.195,15.759-15.51,28.074-31.269,31.269l-15.991,3.242c-7.55,1.531-7.55,12.32,0,13.851l15.991,3.242   c15.759,3.195,28.074,15.51,31.269,31.269l3.242,15.991c1.531,7.55,12.32,7.55,13.851,0l3.242-15.991   C305.527,96.581,317.842,84.265,333.601,81.069z"></path>	<path style="fill:#F9D366;" d="M198.418,133.187l19.364-3.926c9.142-1.854,9.142-14.919,0-16.772l-19.364-3.926   c-19.083-3.869-33.997-18.783-37.866-37.866l-3.926-19.364c-1.854-9.142-14.919-9.142-16.772,0l-3.926,19.364   c-3.869,19.083-18.783,33.997-37.866,37.866l-19.364,3.926c-9.142,1.854-9.142,14.919,0,16.772l19.364,3.926   c19.083,3.869,33.997,18.783,37.866,37.866l3.926,19.364c1.854,9.142,14.919,9.142,16.772,0l3.926-19.364   C164.421,151.97,179.336,137.056,198.418,133.187z"></path></g><path d="M460.049,111.809c-4.194,0-7.594,3.4-7.594,7.594v19.744c0,4.194,3.4,7.594,7.594,7.594c4.194,0,7.594-3.4,7.594-7.594  v-19.744C467.644,115.209,464.243,111.809,460.049,111.809z"></path><path d="M460.049,164.965c-4.194,0-7.594,3.4-7.594,7.594v19.744c0,4.194,3.4,7.594,7.594,7.594c4.194,0,7.594-3.4,7.594-7.594  V172.56C467.644,168.366,464.243,164.965,460.049,164.965z"></path><path d="M496.5,148.259h-19.744c-4.194,0-7.594,3.4-7.594,7.594s3.4,7.594,7.594,7.594H496.5c4.194,0,7.594-3.4,7.594-7.594  S500.694,148.259,496.5,148.259z"></path><path d="M443.343,163.448c4.194,0,7.594-3.4,7.594-7.594s-3.4-7.594-7.594-7.594h-19.744c-4.194,0-7.594,3.4-7.594,7.594  s3.4,7.594,7.594,7.594H443.343z"></path><path d="M52.51,36.773c4.194,0,7.594-3.4,7.594-7.594V9.434c0-4.194-3.4-7.594-7.594-7.594s-7.594,3.4-7.594,7.594v19.744  C44.915,33.372,48.316,36.773,52.51,36.773z"></path><path d="M52.51,89.929c4.194,0,7.594-3.4,7.594-7.594V62.591c0-4.194-3.4-7.594-7.594-7.594s-7.594,3.4-7.594,7.594v19.744  C44.915,86.53,48.316,89.929,52.51,89.929z"></path><path d="M69.216,53.479H88.96c4.194,0,7.594-3.4,7.594-7.594s-3.4-7.594-7.594-7.594H69.216c-4.194,0-7.594,3.4-7.594,7.594  S65.022,53.479,69.216,53.479z"></path><path d="M16.059,53.479h19.744c4.194,0,7.594-3.4,7.594-7.594s-3.4-7.594-7.594-7.594H16.059c-4.194,0-7.594,3.4-7.594,7.594  S11.865,53.479,16.059,53.479z"></path><path d="M267.385,166.723c3.99,0,7.336-3.113,7.574-7.148c0.247-4.187-2.947-7.782-7.134-8.028  c-24.181-1.427-49.617-1.581-73.987-0.456c-4.19,0.193-7.429,3.748-7.236,7.936c0.193,4.19,3.751,7.429,7.936,7.236  c23.841-1.102,48.739-0.95,72.392,0.445C267.085,166.719,267.235,166.723,267.385,166.723z"></path><path d="M374.096,167.922c-4.04-1.122-8.227,1.24-9.351,5.281c-1.124,4.041,1.24,8.228,5.281,9.352  c41.811,11.63,67.783,28.388,67.783,43.733c0,14.231-21.976,29.587-58.785,41.08c-40.632,12.686-94.8,19.674-152.525,19.674  s-111.893-6.987-152.525-19.674c-36.81-11.492-58.786-26.849-58.786-41.079c0-11.728,15.122-21.859,24.136-26.855  c17.108-9.483,41.959-17.614,71.862-23.515c4.114-0.812,6.792-4.806,5.98-8.921s-4.813-6.793-8.921-5.98  C39.454,174.591,0,198.381,0,226.288c0,15.463,12.049,37.656,69.446,55.579c42.059,13.132,97.834,20.364,157.052,20.364  s114.993-7.233,157.052-20.364c57.398-17.921,69.446-40.116,69.446-55.579C452.997,202.804,424.976,182.076,374.096,167.922z"></path><path d="M111.767,225.655c1.727-1.795,2.536-4.403,1.925-7.008c-0.959-4.083-5.048-6.614-9.13-5.656l-0.254,0.06  c-6.259,1.478-10.464,6.798-10.464,13.237s4.205,11.759,10.463,13.237l0.252,0.06c34.543,8.132,77.849,12.612,121.94,12.612  c44.09,0,87.397-4.479,121.947-12.613l0.245-0.058c6.259-1.478,10.463-6.797,10.463-13.237c0-6.439-4.205-11.758-10.472-13.239  l-0.236-0.056c-4.083-0.967-8.173,1.561-9.137,5.644c-0.617,2.608,0.192,5.22,1.922,7.018  c-32.808,7.33-73.359,11.352-114.732,11.352C185.128,237.007,144.576,232.985,111.767,225.655z"></path><path d="M358.768,292.917c-4.194,0-7.594,3.4-7.594,7.594V462.89c0,13.743-48.569,33.704-124.676,33.704  s-124.676-19.962-124.676-33.704v-31.526c0-4.194-3.4-7.594-7.594-7.594s-7.594,3.4-7.594,7.594v31.525  c0,14.844,15.24,27.45,44.072,36.451c25.695,8.023,59.715,12.441,95.793,12.441s70.098-4.419,95.793-12.441  c28.832-9.002,44.072-21.607,44.072-36.451V300.512C366.363,296.318,362.962,292.917,358.768,292.917z"></path><path d="M94.227,413.643c4.194,0,7.594-3.4,7.594-7.594V300.512c0-4.194-3.4-7.594-7.594-7.594s-7.594,3.4-7.594,7.594v105.537  C86.633,410.242,90.033,413.643,94.227,413.643z"></path><path d="M510.635,51.049l-17.374-24.916c-2.4-3.441-7.133-4.284-10.573-1.886L250.962,185.815c-1.653,1.152-2.779,2.913-3.133,4.896  c-0.354,1.983,0.094,4.025,1.246,5.676l17.374,24.916c1.476,2.117,3.837,3.251,6.236,3.251c1.5,0,3.014-0.444,4.337-1.365  L508.75,61.622c1.652-1.152,2.779-2.913,3.133-4.896C512.236,54.743,511.787,52.7,510.635,51.049z M274.565,206.389l-8.687-12.458  L485.146,41.049l8.687,12.458L274.565,206.389z"></path><path d="M233.227,85.27l15.99,3.242c12.797,2.594,22.741,12.539,25.335,25.335l3.242,15.99c1.402,6.917,7.312,11.748,14.368,11.748  c7.058,0,12.966-4.831,14.367-11.748l3.242-15.99c2.594-12.797,12.539-22.741,25.335-25.335l15.99-3.242  c6.917-1.402,11.748-7.31,11.748-14.367c0-7.058-4.831-12.966-11.748-14.368l-15.99-3.242  c-12.797-2.594-22.741-12.539-25.335-25.335l-3.242-15.99c-1.402-6.917-7.31-11.748-14.367-11.748l0,0  c-7.057,0-12.966,4.831-14.368,11.748l-3.242,15.99c-2.594,12.797-12.539,22.741-25.335,25.335l-15.99,3.242  c-6.917,1.402-11.748,7.312-11.748,14.368C221.48,77.961,226.311,83.868,233.227,85.27z M252.236,68.178  c18.79-3.81,33.393-18.414,37.204-37.204l2.725-13.435l2.724,13.435c3.81,18.79,18.414,33.393,37.204,37.204l13.435,2.725  l-13.435,2.724c-18.79,3.81-33.393,18.414-37.204,37.204l-2.726,13.435l-2.723-13.435c-3.81-18.79-18.414-33.393-37.204-37.204  l-13.435-2.726L252.236,68.178z"></path><path d="M77.189,105.046c-7.62,1.545-12.942,8.055-12.942,15.829s5.321,14.284,12.942,15.829l19.365,3.926  c16.128,3.27,28.662,15.804,31.931,31.932l3.926,19.364c1.545,7.62,8.054,12.942,15.829,12.942c7.774,0,14.283-5.321,15.828-12.942  l3.926-19.364c3.27-16.128,15.803-28.662,31.931-31.932l19.364-3.926c7.62-1.545,12.942-8.054,12.942-15.829  c0-7.775-5.322-14.284-12.942-15.829l-19.364-3.926c-16.128-3.27-28.662-15.803-31.931-31.931l-3.926-19.364  c-1.545-7.62-8.054-12.942-15.828-12.942c-7.775,0-14.284,5.322-15.829,12.942l-3.926,19.364  c-3.27,16.128-15.803,28.662-31.931,31.931L77.189,105.046z M143.371,72.206l3.926-19.364c0.073-0.361,0.156-0.772,0.944-0.772  c0.787,0,0.87,0.41,0.943,0.772l3.926,19.364c4.486,22.123,21.677,39.314,43.8,43.8l19.364,3.926  c0.361,0.073,0.772,0.156,0.772,0.944c0,0.788-0.41,0.87-0.772,0.944l-19.364,3.926c-22.123,4.486-39.315,21.678-43.8,43.8  l-3.926,19.364c-0.073,0.361-0.156,0.771-0.943,0.771s-0.87-0.409-0.944-0.771l-3.926-19.364c-4.485-22.122-21.677-39.314-43.8-43.8  l-19.365-3.926c-0.361-0.073-0.771-0.156-0.771-0.944c0-0.788,0.409-0.87,0.771-0.944l19.365-3.926  C121.694,111.52,138.887,94.329,143.371,72.206z"></path><g></g><g></g><g></g><g></g><g></g><g></g><g></g><g></g><g></g><g></g><g></g><g></g><g></g><g></g><g></g></svg>