<svg xmlns="http://www.w3.org/2000/svg" height="512" viewBox="0 0 60 60" width="512"><g id="Page-1" fill="none" fill-rule="evenodd"><g id="054---Marcos"><path id="Path" d="m38.26 35h16.74c2.209139 0 4 1.790861 4 4v16c0 2.209139-1.790861 4-4 4h-50c-2.209139 0-4-1.790861-4-4v-16c0-2.209139 1.790861-4 4-4z" fill="#a4c400"></path><path id="Path" d="m55 35h-3c2.209139 0 4 1.790861 4 4v16c0 2.209139-1.790861 4-4 4h3c2.209139 0 4-1.790861 4-4v-16c0-2.209139-1.790861-4-4-4z" fill="#90ac00"></path><path id="Path" d="m30 .99999952v18.00000048l-12.73 12.73c-5.149718-5.1480363-6.6905351-12.8916265-3.9037554-19.6188645 2.7867797-6.72723805 9.3521436-11.11281702 16.6337554-11.11113598z" fill="#ff9801"></path><path id="Path" d="m48.0000014 19h-18.0000014v-18.00000136c4.7744661-.00185646 9.3539161 1.89397006 12.7299737 5.27002768s5.2718841 7.95550758 5.2700277 12.72997368z" fill="#60a917"></path><path id="Path" d="m42.73 6.27c-3.373507-3.37988662-7.9546317-5.27639306-12.73-5.27001611v.26601611c8.6646663 1.44656158 15.0108296 8.9494189 15 17.734h3.0000161c.006377-4.7753683-1.8901295-9.35649297-5.2700161-12.73z" fill="#549414"></path><path id="Path" d="m48.0000005 19c.001681 7.2816118-4.383898 13.8469757-11.111136 16.6337554s-14.4708282 1.2459626-19.6188645-3.9037554l12.73-12.73z" fill="#ef314c"></path><path id="Path" d="m45 19c.0067354 9.3610666-7.1706584 17.1609362-16.5 17.931 5.0171869.4244463 9.9825337-1.2738347 13.6888786-4.6819613 3.7063448-3.4081266 5.8142044-8.213931 5.8111248-13.2490387z" fill="#bb193b"></path><path id="Path" d="m21.25 49h-4.5" stroke="#000" stroke-linejoin="round" stroke-width="2"></path><g fill="#000"><path id="Shape" d="m55 34h-13.363c.6315764-.4841984 1.2327156-1.0068555 1.8-1.565 5.4339788-5.4339555 7.0595531-13.6062006 4.1187189-20.7060241-2.9408342-7.09982338-9.8689288-11.72903359-17.5537189-11.72903359s-14.6128847 4.62921021-17.5537189 11.72903359c-2.94083424 7.0998235-1.3152599 15.2720686 4.1187189 20.7060241.5659945.5580168 1.1657949 1.0806715 1.796 1.565h-13.363c-2.76005315.0033061-4.99669388 2.2399468-5 5v16c.00330612 2.7600532 2.23994685 4.9966939 5 5h50c2.7600532-.0033061 4.9966939-2.2399468 5-5v-16c-.0033061-2.7600532-2.2399468-4.9966939-5-5zm-12.979-2.979c-6.358503 6.3698312-16.5849446 6.6647741-23.3.672l11.693-11.693h16.53c-.2291367 4.1542449-1.9819208 8.07816-4.923 11.021zm4.923-13.021h-15.944v-15.951c8.6024644.47815236 15.4696237 7.34832652 15.944 15.951zm-28.965-11.021c2.9394206-2.94704523 6.8648316-4.70299078 11.021-4.93v16.537l-11.692 11.692c-5.9691821-6.7231078-5.6752121-16.9305696.671-23.299zm40.021 48.021c0 1.6568542-1.3431458 3-3 3h-50c-1.65685425 0-3-1.3431458-3-3v-16c0-1.6568542 1.34314575-3 3-3h16.535c5.3283086 2.6666755 11.6016914 2.6666755 16.93 0h16.535c1.6568542 0 3 1.3431458 3 3z" fill-rule="nonzero"></path><path id="Shape" d="m38 45c0-1.6568542-1.3431458-3-3-3h-2c-.5522847 0-1 .4477153-1 1v8c0 .5522847.4477153 1 1 1s1-.4477153 1-1v-3h.382l1.718 3.447c.2468713.4942949.8477051.6948713 1.342.448s.6948713-.8477051.448-1.342l-1.466-2.932c.9663661-.5184056 1.5712531-1.5243755 1.576-2.621zm-4-1h1c.5522847 0 1 .4477153 1 1s-.4477153 1-1 1h-1z" fill-rule="nonzero"></path><path id="Path" d="m27 44c.5522847 0 1 .4477153 1 1s.4477153 1 1 1 1-.4477153 1-1c0-1.6568542-1.3431458-3-3-3s-3 1.3431458-3 3v4c0 1.6568542 1.3431458 3 3 3s3-1.3431458 3-3c0-.5522847-.4477153-1-1-1s-1 .4477153-1 1-.4477153 1-1 1-1-.4477153-1-1v-4c0-.5522847.4477153-1 1-1z"></path><path id="Shape" d="m19.937 42.648c-.1458609-.3912402-.5194545-.6506706-.937-.6506706s-.7911391.2594304-.937.6506706l-3 8c-.1932996.5174908.0695092 1.0937003.587 1.287.5174908.1932996 1.0937003-.0695092 1.287-.587l.506-1.348h3.114l.506 1.352c.1467373.3901885.5201322.6484168.937.648.1197749-.0004117.2385583-.0217318.351-.063.2488487-.0929529.4504871-.2810988.5604248-.5229244.1099378-.2418256.1191396-.5174562.0255752-.7660756zm-1.744 5.352.807-2.152.807 2.152z" fill-rule="nonzero"></path><path id="Path" d="m51.5 44c.8 0 1.5.468 1.5 1 0 .5522847.4477153 1 1 1s1-.4477153 1-1c-.2681152-1.7255075-1.7537864-2.9981581-3.5-2.9981581s-3.2318848 1.2726506-3.5 2.9981581c.1503745 1.7886565 1.7093881 3.1249538 3.5 3 .8 0 1.5.468 1.5 1s-.7 1-1.5 1-1.5-.468-1.5-1c0-.5522847-.4477153-1-1-1s-1 .4477153-1 1c.2681152 1.7255075 1.7537864 2.9981581 3.5 2.9981581s3.2318848-1.2726506 3.5-2.9981581c-.1503745-1.7886565-1.7093881-3.1249538-3.5-3-.8 0-1.5-.468-1.5-1s.7-1 1.5-1z"></path><path id="Shape" d="m43 42c-1.6568542 0-3 1.3431458-3 3v4c0 1.6568542 1.3431458 3 3 3s3-1.3431458 3-3v-4c0-1.6568542-1.3431458-3-3-3zm1 7c0 .5522847-.4477153 1-1 1s-1-.4477153-1-1v-4c0-.5522847.4477153-1 1-1s1 .4477153 1 1z" fill-rule="nonzero"></path><path id="Path" d="m12.128 42.008c-.4521125-.0553028-.885219.1991524-1.057.621l-1.071 2.679-1.071-2.679c-.17260395-.4211349-.60510941-.675237-1.057-.621-.45221347.0585097-.80757969.4155211-.864.868l-1 8c-.05458802.5403144.33202919 1.0254374.87090046 1.0927963s1.03300747-.3076699 1.11309954-.8447963l.519-4.153.56 1.4c.15151782.3803506.51958059.6299203.929.6299203.4094194 0 .7774822-.2495697.929-.6299203l.56-1.4.519 4.153c.0625244.5003376.4877709.8758577.992.876.0417877-.0002074.0835268-.0028787.125-.008.5477838-.0686288.936322-.5681779.868-1.116l-1-8c-.0565212-.4528013-.4123971-.8099114-.865-.868z"></path></g></g></g></svg>