<svg xmlns="http://www.w3.org/2000/svg" xmlns:svg="http://www.w3.org/2000/svg" id="svg2211" xml:space="preserve" width="682.66669" height="682.66669" viewBox="0 0 682.66669 682.66669"><defs id="defs2215"><clipPath clipPathUnits="userSpaceOnUse" id="clipPath2227"><path d="M 0,512 H 512 V 0 H 0 Z" id="path2225"></path></clipPath></defs><g id="g2217" transform="matrix(1.3333333,0,0,-1.3333333,0,682.66667)"><path d="m 344.055,443.738 h -68.414 v -39.476 h 68.414 z" style="fill:#d5f5fb;fill-opacity:1;fill-rule:nonzero;stroke:none" id="path2219"></path><g id="g2221"><g id="g2223" clip-path="url(#clipPath2227)"><g id="g2229" transform="translate(273.8483,443.7379)"><path d="m 0,0 h 72 c 13.255,0 24,10.745 24,24 v 0 C 96,37.255 85.255,48 72,48 H 0 C -13.255,48 -24,37.255 -24,24 v 0 C -24,10.745 -13.255,0 0,0" style="fill:#ff7480;fill-opacity:1;fill-rule:nonzero;stroke:none" id="path2231"></path></g><g id="g2233" transform="translate(310.0006,20.2621)"><path d="m 0,0 c -106.039,0 -192,85.961 -192,192 0,106.039 85.961,192 192,192 106.039,0 192,-85.961 192,-192 C 192,85.961 106.039,0 0,0" style="fill:#5ddef5;fill-opacity:1;fill-rule:nonzero;stroke:none" id="path2235"></path></g><g id="g2237" transform="translate(414.6342,51.2314)"><path d="m 0,0 c -74.428,-48.468 -175.086,-40.046 -240.398,25.266 -74.981,74.981 -74.981,196.549 0,271.529 74.981,74.981 196.548,74.981 271.529,0 65.251,-65.251 73.718,-165.782 25.402,-240.189" style="fill:none;stroke:#000000;stroke-width:20;stroke-linecap:round;stroke-linejoin:round;stroke-miterlimit:10;stroke-dasharray:none;stroke-opacity:1" id="path2239"></path></g><g id="g2241" transform="translate(445.7652,76.4976)"><path d="M 0,0 V 0" style="fill:none;stroke:#000000;stroke-width:20;stroke-linecap:round;stroke-linejoin:round;stroke-miterlimit:10;stroke-dasharray:none;stroke-opacity:1" id="path2243"></path></g><g id="g2245" transform="translate(310.0006,67.1331)"><path d="m 0,0 c -80.153,0 -145.129,64.976 -145.129,145.129 0,80.153 64.976,145.129 145.129,145.129 80.153,0 145.129,-64.976 145.129,-145.129 C 145.129,64.976 80.153,0 0,0" style="fill:#ffffff;fill-opacity:1;fill-rule:nonzero;stroke:none" id="path2247"></path></g><g id="g2249" transform="translate(310.0006,67.1331)"><path d="m 0,0 c -80.153,0 -145.129,64.976 -145.129,145.129 0,80.153 64.976,145.129 145.129,145.129 80.153,0 145.129,-64.976 145.129,-145.129 C 145.129,64.976 80.153,0 0,0 Z" style="fill:none;stroke:#000000;stroke-width:20;stroke-linecap:round;stroke-linejoin:round;stroke-miterlimit:10;stroke-dasharray:none;stroke-opacity:1" id="path2251"></path></g><g id="g2253" transform="translate(273.8483,443.7379)"><path d="m 0,0 h 72 c 13.255,0 24,10.745 24,24 v 0 C 96,37.255 85.255,48 72,48 H 0 C -13.255,48 -24,37.255 -24,24 v 0 C -24,10.745 -13.255,0 0,0 Z" style="fill:none;stroke:#000000;stroke-width:20;stroke-linecap:round;stroke-linejoin:round;stroke-miterlimit:10;stroke-dasharray:none;stroke-opacity:1" id="path2255"></path></g><g id="g2257" transform="translate(344.0551,404.2621)"><path d="M 0,0 V 39.476 H -68.414 V 0" style="fill:none;stroke:#000000;stroke-width:20;stroke-linecap:round;stroke-linejoin:round;stroke-miterlimit:10;stroke-dasharray:none;stroke-opacity:1" id="path2259"></path></g><g id="g2261" transform="translate(328.9551,231.2166)"><path d="M 0,0 51.373,51.373" style="fill:none;stroke:#000000;stroke-width:20;stroke-linecap:round;stroke-linejoin:round;stroke-miterlimit:10;stroke-dasharray:none;stroke-opacity:1" id="path2263"></path></g><g id="g2265" transform="translate(288.9265,212.2621)"><path d="m 0,0 c 0,-11.639 9.435,-21.074 21.074,-21.074 11.639,0 21.074,9.435 21.074,21.074 0,11.639 -9.435,21.074 -21.074,21.074 C 9.435,21.074 0,11.639 0,0" style="fill:#ff838e;fill-opacity:1;fill-rule:nonzero;stroke:none" id="path2267"></path></g><g id="g2269" transform="translate(288.9265,212.2621)"><path d="m 0,0 c 0,-11.639 9.435,-21.074 21.074,-21.074 11.639,0 21.074,9.435 21.074,21.074 0,11.639 -9.435,21.074 -21.074,21.074 C 9.435,21.074 0,11.639 0,0 Z" style="fill:none;stroke:#000000;stroke-width:20;stroke-linecap:round;stroke-linejoin:round;stroke-miterlimit:10;stroke-dasharray:none;stroke-opacity:1" id="path2271"></path></g><g id="g2273" transform="translate(416.9196,212.14)"><path d="M 0,0 H -9.264" style="fill:none;stroke:#000000;stroke-width:20;stroke-linecap:round;stroke-linejoin:round;stroke-miterlimit:10;stroke-dasharray:none;stroke-opacity:1" id="path2275"></path></g><g id="g2277" transform="translate(203.0817,212.3842)"><path d="M 0,0 H 9.264" style="fill:none;stroke:#000000;stroke-width:20;stroke-linecap:round;stroke-linejoin:round;stroke-miterlimit:10;stroke-dasharray:none;stroke-opacity:1" id="path2279"></path></g><g id="g2281" transform="translate(310.1228,319.1811)"><path d="M 0,0 V -9.264" style="fill:none;stroke:#000000;stroke-width:20;stroke-linecap:round;stroke-linejoin:round;stroke-miterlimit:10;stroke-dasharray:none;stroke-opacity:1" id="path2283"></path></g><g id="g2285" transform="translate(309.8785,105.3432)"><path d="M 0,0 V 9.264" style="fill:none;stroke:#000000;stroke-width:20;stroke-linecap:round;stroke-linejoin:round;stroke-miterlimit:10;stroke-dasharray:none;stroke-opacity:1" id="path2287"></path></g><g id="g2289" transform="translate(294.1852,228.0776)"><path d="M 0,0 -27.149,27.149" style="fill:none;stroke:#000000;stroke-width:20;stroke-linecap:round;stroke-linejoin:round;stroke-miterlimit:10;stroke-dasharray:none;stroke-opacity:1" id="path2291"></path></g><g id="g2293" transform="translate(324.9023,227.1638)"><path d="M 0,0 53.973,53.972" style="fill:none;stroke:#000000;stroke-width:20;stroke-linecap:round;stroke-linejoin:round;stroke-miterlimit:10;stroke-dasharray:none;stroke-opacity:1" id="path2295"></path></g><g id="g2297" transform="translate(126.7609,150.5582)"><path d="M 0,0 H -76.761" style="fill:none;stroke:#000000;stroke-width:20;stroke-linecap:round;stroke-linejoin:round;stroke-miterlimit:10;stroke-dasharray:none;stroke-opacity:1" id="path2299"></path></g><g id="g2301" transform="translate(118.0007,208.9946)"><path d="M 0,0 H -54.001" style="fill:none;stroke:#000000;stroke-width:20;stroke-linecap:round;stroke-linejoin:round;stroke-miterlimit:10;stroke-dasharray:none;stroke-opacity:1" id="path2303"></path></g><g id="g2305" transform="translate(124.0942,267.431)"><path d="M 0,0 H -114.094" style="fill:none;stroke:#000000;stroke-width:20;stroke-linecap:round;stroke-linejoin:round;stroke-miterlimit:10;stroke-dasharray:none;stroke-opacity:1" id="path2307"></path></g><g id="g2309" transform="translate(149.4276,325.8674)"><path d="M 0,0 H -71.261" style="fill:none;stroke:#000000;stroke-width:20;stroke-linecap:round;stroke-linejoin:round;stroke-miterlimit:10;stroke-dasharray:none;stroke-opacity:1" id="path2311"></path></g><g id="g2313" transform="translate(10,150.5582)"><path d="M 0,0 V 0" style="fill:none;stroke:#000000;stroke-width:20;stroke-linecap:round;stroke-linejoin:round;stroke-miterlimit:10;stroke-dasharray:none;stroke-opacity:1" id="path2315"></path></g></g></g></g></svg>